<svg xmlns="http://www.w3.org/2000/svg" width="19" height="23.722" viewBox="0 0 19 23.722"><defs><style>.a{fill:#c3c3c3;}</style></defs><path class="a" d="M7.973,3.083a3.562,3.562,0,0,1,7.054,0l2.411.475V4.746h1.188A2.375,2.375,0,0,1,21,7.121v14.25a2.375,2.375,0,0,1-2.375,2.375H4.375A2.375,2.375,0,0,1,2,21.371V7.121A2.382,2.382,0,0,1,4.375,4.746H5.563V3.558l2.411-.475ZM5.563,7.121H4.375v14.25h14.25V7.121H17.437V8.308H5.563ZM11.5,4.746a1.187,1.187,0,1,0-1.187-1.187A1.187,1.187,0,0,0,11.5,4.746Z" transform="translate(-2 -0.023)"/></svg>