<svg xmlns="http://www.w3.org/2000/svg" width="17.918" height="21.57" viewBox="0 0 17.918 21.57"><defs><style>.a{fill:#c3c3c3;}</style></defs><path class="a" d="M21.338,17.828,15.665,7.2v-5.4h.561a.449.449,0,0,0,.449-.449V.449A.449.449,0,0,0,16.227,0H9.382a.449.449,0,0,0-.449.449v.908a.449.449,0,0,0,.449.449H9.9V7.2L4.674,17.782c-1.335,2.092-.405,3.788,2.077,3.788H19.333C21.814,21.57,22.712,19.895,21.338,17.828ZM11.508,8l.186-.376V1.807h2.175V7.653l.212.4L16.511,12.6H9.235Z" transform="translate(-4.064)"/></svg>