<svg xmlns="http://www.w3.org/2000/svg" width="42" height="156.95" viewBox="0 0 42 156.95">
  <g id="Group_750" data-name="Group 750" transform="translate(172 27)">
    <path id="document" d="M4,18H16V6H12V2H4ZM2,19V0H14l4,4V20H2Z" transform="translate(-172 -4)" fill="#989898"/>
    <path id="document-2" data-name="document" d="M4,18H16V6H12V2H4ZM2,19V0H14l4,4V20H2Z" transform="translate(-151 -4)" fill="#30a4f0"/>
    <path id="dashboard" d="M10,20A10,10,0,1,1,20,10,10,10,0,0,1,10,20ZM4.4,15.71a9.95,9.95,0,0,1,11.2,0,8,8,0,1,0-11.2,0Zm6.12-7.64,3.02-3.02,1.41,1.41L11.93,9.48a2,2,0,1,1-1.41-1.41Z" transform="translate(-172 -27)" fill="#989898"/>
    <path id="dashboard-2" data-name="dashboard" d="M10,20A10,10,0,1,1,20,10,10,10,0,0,1,10,20ZM4.4,15.71a9.95,9.95,0,0,1,11.2,0,8,8,0,1,0-11.2,0Zm6.12-7.64,3.02-3.02,1.41,1.41L11.93,9.48a2,2,0,1,1-1.41-1.41Z" transform="translate(-151 -27)" fill="#25a3f3"/>
    <path id="exclamation-outline" d="M2.93,17.07a10,10,0,1,1,14.142,0,10,10,0,0,1-14.142,0Zm12.73-1.41a8,8,0,1,0-11.32,0A8,8,0,0,0,15.66,15.66ZM9,5h2v6H9Zm0,8h2v2H9Z" transform="translate(-172 43)" fill="#989898"/>
    <path id="exclamation-outline-2" data-name="exclamation-outline" d="M2.93,17.07a10,10,0,1,1,14.142,0,10,10,0,0,1-14.142,0Zm12.73-1.41a8,8,0,1,0-11.32,0A8,8,0,0,0,15.66,15.66ZM9,5h2v6H9Zm0,8h2v2H9Z" transform="translate(-151 43)" fill="#15a1f7"/>
    <path id="chart-pie" d="M19.95,11A10,10,0,1,1,9,.05V11Zm-.08-2.6H11.6V.13A10,10,0,0,1,19.87,8.4Z" transform="translate(-172 109.95)" fill="#989898"/>
    <path id="chart-pie-2" data-name="chart-pie" d="M19.95,11A10,10,0,1,1,9,.05V11Zm-.08-2.6H11.6V.13A10,10,0,0,1,19.87,8.4Z" transform="translate(-150 109.95)" fill="#009dff"/>
    <path id="bolt" d="M13,8V0L8.11,5.87,3,12H7v8L17,8Z" transform="translate(-172 66)" fill="#989898"/>
    <path id="bolt-2" data-name="bolt" d="M13,8V0L8.11,5.87,3,12H7v8L17,8Z" transform="translate(-152 66)" fill="#15a1f7"/>
    <path id="chat-bubble-dots" d="M10,15,6,19V15H2a2,2,0,0,1-2-2V3A2.006,2.006,0,0,1,2,1H18a2,2,0,0,1,2,2V13a2,2,0,0,1-2,2ZM5,7V9H7V7ZM9,7V9h2V7Zm4,0V9h2V7Z" transform="translate(-172 88)" fill="#989898"/>
    <path id="chat-bubble-dots-2" data-name="chat-bubble-dots" d="M10,15,6,19V15H2a2,2,0,0,1-2-2V3A2.006,2.006,0,0,1,2,1H18a2,2,0,0,1,2,2V13a2,2,0,0,1-2,2ZM5,7V9H7V7ZM9,7V9h2V7Zm4,0V9h2V7Z" transform="translate(-150 88)" fill="#009ffb"/>
    <g id="flask-outline" transform="translate(-171 19)">
      <g id="Group_1" data-name="Group 1">
        <path id="Path_3" data-name="Path 3" d="M21.338,17.828,15.665,7.2v-5.4h.561a.449.449,0,0,0,.449-.449V.449A.449.449,0,0,0,16.227,0H9.382a.449.449,0,0,0-.449.449v.908a.449.449,0,0,0,.449.449H9.9V7.2L4.674,17.782c-1.335,2.092-.405,3.788,2.077,3.788H19.333C21.814,21.57,22.712,19.895,21.338,17.828ZM11.508,8l.186-.376V1.807h2.175V7.653l.212.4L16.511,12.6H9.235Z" transform="translate(-4.064)" fill="#989898"/>
      </g>
    </g>
    <g id="flask-outline-2" data-name="flask-outline" transform="translate(-150 19)">
      <g id="Group_1-2" data-name="Group 1">
        <path id="Path_3-2" data-name="Path 3" d="M21.338,17.828,15.665,7.2v-5.4h.561a.449.449,0,0,0,.449-.449V.449A.449.449,0,0,0,16.227,0H9.382a.449.449,0,0,0-.449.449v.908a.449.449,0,0,0,.449.449H9.9V7.2L4.674,17.782c-1.335,2.092-.405,3.788,2.077,3.788H19.333C21.814,21.57,22.712,19.895,21.338,17.828ZM11.508,8l.186-.376V1.807h2.175V7.653l.212.4L16.511,12.6H9.235Z" transform="translate(-4.064)" fill="#25a3f3"/>
      </g>
    </g>
  </g>
</svg>
