<?xml version="1.0" encoding="UTF-8"?>
<svg version="1.0" xmlns="http://www.w3.org/2000/svg" width="642" height="435" >
<path d="M131.598,220.444c-3.644-2.938-8.996-3.081-12.541,0.165c-2.998,2.745-4.423,7.086-6.599,9.901 c-0.84,1.088-1.868,2.044-2.703,2.582c-0.998,0.644-1.483,0.625-1.587,0.596c0.364,0.104-0.008,0.265,0.065-1.174 c0.091-1.785,0.996-4.109,1.762-5.969c3.802-9.233,9.834-17.725,15.531-25.849c11.871-16.932,25.047-32.951,38.41-48.715 c19.42-22.909,39.559-45.242,60.289-66.973c15.625-16.38,31.654-32.463,48.711-47.362c8.471-7.399,18.198-16.872,29.069-20.665 c1.607-0.561,3.582-1.082,3.792,0.564c0.443,3.473-1.548,7.479-2.901,10.535c-7.134,16.109-17.734,30.915-27.763,45.295 c-22.86,32.779-47.423,64.444-71.036,96.688c-46.033,62.859-91.54,126.143-138.875,188.035 c-15.054,19.684-30.04,39.794-47.013,57.895c-2.144,2.285-4.346,4.533-6.729,6.571c-0.696,0.596-1.418,1.15-2.19,1.643 c-0.588,0.375-1.352,0.623-1.185,0.608c-0.017,0.002,0.556,0.47,0.531,0.383c-0.04-0.138-0.012-1.055,0.084-1.599 c0.487-2.764,1.562-5.449,2.585-8.048c2.334-5.925,5.124-11.679,7.928-17.393c0.99-2.018-2.028-3.792-3.022-1.766 c-1.051,2.143-17.436,33.293-7.42,31.834c4.132-0.603,8.317-6.021,10.964-8.779c6.848-7.139,13.146-14.818,19.389-22.483 c45.121-55.4,86.623-113.863,128.775-171.52c22.979-31.431,45.907-62.9,69.042-94.217c12.251-16.584,24.761-32.985,36.737-49.77 c11.068-15.513,22.284-31.389,30.762-48.513c2.009-4.057,8.35-15.256,2.907-19.164c-5.188-3.726-14.895,4.145-18.721,6.832 c-13.818,9.705-26.252,21.498-38.389,33.177c-19.591,18.853-38.218,38.708-56.452,58.866 c-18.288,20.217-36.215,40.804-53.163,62.163c-9.531,12.013-18.871,24.295-26.919,37.365 c-1.425,2.314-15.537,24.666-5.489,25.021c9.625,0.34,11.185-22.109,20.888-14.288 C130.863,224.321,133.356,221.861,131.598,220.444L131.598,220.444z"/>
<path d="M231.49,191.696c-6.192,2.692-12.506,6.883-16.158,12.66c-4.549,7.198,0.58,17.517,8.581,19.594 c11.712,3.04,10.521-24.633,10.21-30.743c-0.114-2.246-3.615-2.257-3.5,0c0.198,3.9,0.13,7.823-0.094,11.721 c-0.211,3.678-0.305,14.003-4.751,15.596c-3.082,1.104-6.971-4.579-8.034-6.55c-2.11-3.914,0.323-8.027,2.971-10.887 c3.356-3.626,8.026-6.405,12.542-8.369C235.322,193.82,233.538,190.805,231.49,191.696z"/>
<path d="M268.503,206.821c8.667-1.024,17.153,2.83,17.378,12.487c0.052,2.253,3.553,2.259,3.5,0 c-0.267-11.465-10.168-17.253-20.878-15.987C266.29,203.583,266.265,207.085,268.503,206.821L268.503,206.821z"/>
<path d="M399.656,141.885c23.665-30.713,46.768-62.179,67.342-95.056c5.408-8.642,10.711-17.45,14.963-26.73 c1.956-4.268,5.543-11.119,3.629-15.971c-5.109-12.951-39.673,17.543-43.526,20.647c-28.709,23.125-52.353,52.552-72.8,83.038 c-19.352,28.854-36.297,59.857-48.333,92.503c-4.371,11.855-8.06,24.09-9.731,36.643c-1.025,7.701-1.464,16.709,2.486,23.726 c10.013,17.781,37.696-1.897,47.723-9.083c7.285-5.22,14.212-10.939,20.973-16.817c1.706-1.483-0.78-3.948-2.475-2.475 c-12.23,10.633-25.215,21.371-40.039,28.215c-5.996,2.769-15.354,6.143-21.083,1.014c-5.46-4.888-5.012-14.365-4.478-20.942 c0.999-12.305,4.742-24.439,8.805-36.029c11.539-32.915,28.721-64.051,47.904-93.079c20.522-31.051,44.538-60.677,73.523-84.237 c9.581-7.788,19.84-16.235,31.208-21.329c1.627-0.729,4.682-1.829,5.939-1.259c0.842,0.382,0.975,1.854,0.724,3.51 c-1.11,7.344-5.41,14.476-8.933,20.866c-5.638,10.227-11.957,20.082-18.39,29.822c-18.377,27.823-38.104,54.846-58.453,81.259 C395.256,141.908,398.299,143.647,399.656,141.885L399.656,141.885z"/>
<path d="M526.904,27.964c-6.116,2.983-11.217,9.53-15.473,14.553c-12.491,14.742-22.335,31.492-32.021,48.14 c-14.956,25.707-29.715,51.535-43.754,77.757c-7.438,13.892-14.679,27.901-21.374,42.168 c-4.903,10.449-9.793,21.141-12.933,32.276c-1.16,4.116-3.814,12.889,1.194,15.663c5.792,3.208,14.778-5.137,18.688-8.259 c4.224-3.374,8.222-7.029,12.154-10.733c1.646-1.55-0.833-4.021-2.475-2.475c-5.139,4.839-10.39,9.623-16.126,13.754 c-2.602,1.874-5.918,4.413-9.231,4.781c-4.654,0.517-1.278-10.261-0.542-12.808c3.353-11.596,8.606-22.693,13.771-33.564 c6.84-14.398,14.238-28.53,21.789-42.565c13.459-25.018,27.577-49.675,41.859-74.229c9.545-16.409,19.259-32.831,31.475-47.432 c4.025-4.813,8.932-11.161,14.763-14.005C530.699,29.997,528.923,26.979,526.904,27.964L526.904,27.964z"/>
<path d="M494.397,185.205c-3.251,6.087-6.992,14.792-4.64,21.705c1.701,5.001,7.06,5.96,11.709,5.497 c3.919-0.391,11.077-1.306,13.424-4.773c11.588-17.122,23.353-34.127,35.256-51.032c15.979-22.696,31.872-45.809,49.93-66.927 c2.431-2.843,4.925-5.686,7.729-8.169c0.692-0.612,1.423-1.185,2.258-1.589c0.068-0.033-0.87-0.595-0.861-0.427 c0.088,1.645-0.83,1.059,0.982,0.51c-0.229,0.069-0.451,0.179-0.67,0.274c-0.543,0.237-1.049,0.566-1.54,0.896 c-9.97,6.691-17.819,17.476-25.191,26.698c-25.108,31.409-47.155,65.34-68.799,99.176c-4.438,6.937-8.835,13.899-13.211,20.875 c-0.898,1.431,0.939,3.428,2.394,2.394c7.793-5.536,15.586-11.073,23.378-16.61c-0.798-0.798-1.596-1.596-2.394-2.394 c-3.266,4.409-5.835,10.094-5.825,15.641c0.021,13.054,17.244,13.552,26.463,13.094c2.246-0.111,2.257-3.612,0-3.5 c-8.155,0.405-23.815,0.631-22.9-11.23c0.333-4.313,2.741-8.803,5.284-12.238c1.036-1.398-0.997-3.387-2.394-2.394 c-7.793,5.536-15.586,11.073-23.378,16.61c0.798,0.798,1.596,1.596,2.394,2.394c24.041-38.317,48.549-76.618,76.122-112.525 c8.459-11.015,18.006-24.125,28.89-32.301c0.665-0.5,1.354-0.979,2.088-1.373c0.696-0.374-0.141-0.02,0.243-0.118 c0.563-0.144,1.099-0.644,1.223-1.222c1.154-5.368-2.271-6.941-6.333-3.702c-6.82,5.438-12.229,13.185-17.569,19.984 c-18.018,22.938-34.766,46.897-51.429,70.827c-8.433,12.109-16.8,24.266-25.073,36.483c-1.424,2.103-6.43,2.399-9.066,2.939 c-4.302,0.881-9.618,0.589-10.232-4.683c-0.66-5.659,2.143-12.117,4.762-17.023C498.481,184.981,495.459,183.212,494.397,185.205 L494.397,185.205z"/>
</svg>