<svg xmlns="http://www.w3.org/2000/svg" width="67" height="44" viewBox="0 0 67 44">
  <g id="Group_750" data-name="Group 750" transform="translate(-1629 241)">
    <path id="buoy" d="M17.16,6.42a8.03,8.03,0,0,0-3.58-3.58L12.24,5.53a5.02,5.02,0,0,1,2.23,2.23Zm0,7.16-2.69-1.34a5.02,5.02,0,0,1-2.23,2.23l1.34,2.69A8.03,8.03,0,0,0,17.16,13.58ZM6.42,2.84A8.03,8.03,0,0,0,2.84,6.42L5.53,7.76A5.02,5.02,0,0,1,7.76,5.53ZM2.84,13.58a8.03,8.03,0,0,0,3.58,3.58l1.34-2.69a5.02,5.02,0,0,1-2.23-2.23L2.84,13.58ZM10,20A10,10,0,1,1,20,10,10,10,0,0,1,10,20Zm0-7a3,3,0,1,0-3-3A3,3,0,0,0,10,13Z" transform="translate(1676 -241)" fill="#989898"/>
    <path id="buoy-2" data-name="buoy" d="M17.16,6.42a8.03,8.03,0,0,0-3.58-3.58L12.24,5.53a5.02,5.02,0,0,1,2.23,2.23Zm0,7.16-2.69-1.34a5.02,5.02,0,0,1-2.23,2.23l1.34,2.69A8.03,8.03,0,0,0,17.16,13.58ZM6.42,2.84A8.03,8.03,0,0,0,2.84,6.42L5.53,7.76A5.02,5.02,0,0,1,7.76,5.53ZM2.84,13.58a8.03,8.03,0,0,0,3.58,3.58l1.34-2.69a5.02,5.02,0,0,1-2.23-2.23L2.84,13.58ZM10,20A10,10,0,1,1,20,10,10,10,0,0,1,10,20Zm0-7a3,3,0,1,0-3-3A3,3,0,0,0,10,13Z" transform="translate(1676 -217)" fill="#2d416a"/>
    <path id="notification" d="M4,8A6,6,0,0,1,8.03,2.33a2,2,0,1,1,3.95,0A6,6,0,0,1,16,8v6l3,2v1H1V16l3-2Zm8,10a2,2,0,0,1-4,0Z" transform="translate(1628 -241.015)" fill="#989898"/>
    <path id="notification-2" data-name="notification" d="M4,8A6,6,0,0,1,8.03,2.33a2,2,0,1,1,3.95,0A6,6,0,0,1,16,8v6l3,2v1H1V16l3-2Zm8,10a2,2,0,0,1-4,0Z" transform="translate(1628 -217.015)" fill="#2d416a"/>
    <path id="location-current" d="M0,0,20,8l-8,4-2,8Z" transform="translate(1652 -241)" fill="#989898"/>
    <path id="location-current-2" data-name="location-current" d="M0,0,20,8l-8,4-2,8Z" transform="translate(1652 -217)" fill="#2d416a"/>
  </g>
</svg>
